Coordinates
version=1
nRows=11
nColumns=40
inDegrees=yes

Units are S.I. units (second, meters, Newtons, ...)
If the header above contains a line with 'inDegrees', this indicates whether rotational values are in degrees (yes) or radians (no).

endheader
time	pelvis_tilt	pelvis_list	pelvis_rotation	pelvis_tx	pelvis_ty	pelvis_tz	hip_flexion_r	hip_adduction_r	hip_rotation_r	knee_angle_r	knee_angle_r_beta	ankle_angle_r	subtalar_angle_r	mtp_angle_r	hip_flexion_l	hip_adduction_l	hip_rotation_l	knee_angle_l	knee_angle_l_beta	ankle_angle_l	subtalar_angle_l	mtp_angle_l	lumbar_extension	lumbar_bending	lumbar_rotation	arm_flex_r	arm_add_r	arm_rot_r	elbow_flex_r	pro_sup_r	wrist_flex_r	wrist_dev_r	arm_flex_l	arm_add_l	arm_rot_l	elbow_flex_l	pro_sup_l	wrist_flex_l	wrist_dev_l
      6.75500000	    -42.12354673	      1.17140263	     -0.51443820	     -0.41224838	      0.61689275	     -0.91749220	    105.82265595	    -29.42016304	      2.80162024	     98.23950336	      1.71460279	     30.82380292	      0.00000000	      0.00000000	    104.95904241	    -28.74260361	      1.93008741	     98.54259865	      1.71989280	     33.00099093	      0.00000000	      0.00000000	    -19.67918848	      3.33914083	      6.74611441	    -32.46280287	    -57.35098994	     38.24077590	    101.08637684	     87.84028913	      0.00000000	      0.00000000	     10.52581325	    -60.22090372	     77.20032467	     98.94554542	     87.89308863	      0.00000000	      0.00000000
      6.76000000	    -42.12859893	      1.15417432	     -0.28232647	     -0.41238014	      0.61691370	     -0.91848128	    105.81064200	    -29.63508632	      2.94581460	     98.16926684	      1.71337693	     31.09806177	      0.00000000	      0.00000000	    104.90430199	    -28.29885360	      2.01677192	     98.44296326	      1.71815383	     33.09430880	      0.00000000	      0.00000000	    -19.54480934	      3.51857310	      7.76937701	    -35.87607024	    -56.30442932	     34.71572933	    101.45137755	     87.87309639	      0.00000000	      0.00000000	     14.87721020	    -59.76412484	     81.74549424	     98.72135888	     87.88094519	      0.00000000	      0.00000000
      6.76500000	    -42.43499418	      1.93110260	     -1.12825475	     -0.41365306	      0.61709024	     -0.91679162	    106.51749471	    -28.28430846	      3.76492504	     97.82948664	      1.70744665	     30.80224735	      0.00000000	      0.00000000	    104.78621593	    -29.23577768	      1.41650338	     98.34173395	      1.71638705	     33.18243459	      0.00000000	      0.00000000	    -19.20575257	      2.32059178	      7.05953626	    -32.64291131	    -57.14202575	     37.90145915	    101.45517266	     87.89393238	      0.00000000	      0.00000000	     11.62848727	    -60.60702969	     78.34949172	     99.25129773	     87.90578805	      0.00000000	      0.00000000
      6.77000000	    -42.08115083	      1.59341403	     -0.68864757	     -0.41213078	      0.61783748	     -0.91804451	    105.85970587	    -28.92724836	      3.49465423	     97.91426866	      1.70892637	     31.08295527	      0.00000000	      0.00000000	    104.44507717	    -28.67972468	      1.64331184	     98.35301171	      1.71658388	     33.27916054	      0.00000000	      0.00000000	    -19.41922768	      2.89740507	      7.74807746	    -35.41250119	    -56.16815658	     34.94408209	    101.43653355	     87.88556936	      0.00000000	      0.00000000	     15.07374486	    -59.92932960	     81.94965686	     98.80288649	     87.88510637	      0.00000000	      0.00000000
      6.77500000	    -42.24793260	      2.05696724	     -1.24437136	     -0.41251644	      0.61827807	     -0.91697542	    106.16494463	    -28.02633361	      3.98074620	     97.66222933	      1.70452746	     30.98350144	      0.00000000	      0.00000000	    104.29076872	    -29.28568445	      1.27202268	     98.24893008	      1.71476732	     33.34681096	      0.00000000	      0.00000000	    -19.12659021	      2.15671919	      6.97134630	    -32.42571144	    -56.97811662	     37.96624072	    101.33939818	     87.88746230	      0.00000000	      0.00000000	     12.11575416	    -60.52988586	     78.90216204	     99.09024689	     87.90470037	      0.00000000	      0.00000000
      6.78000000	    -41.37123803	      0.64791216	     -0.36582059	     -0.40893814	      0.62015284	     -0.91855127	    104.06891208	    -29.39717279	      2.43621481	     97.92276685	      1.70907469	     31.59740858	      0.00000000	      0.00000000	    103.93235896	    -28.22017067	      2.62303000	     98.25939654	      1.71494999	     33.52116602	      0.00000000	      0.00000000	    -19.85248648	      4.00684405	      6.53679575	    -32.52433912	    -57.07818820	     37.74207274	    101.18353762	     87.87035139	      0.00000000	      0.00000000	     12.31442536	    -59.89805745	     79.22071136	     98.55831396	     87.89313462	      0.00000000	      0.00000000
      6.78500000	    -41.30940702	      0.68619001	     -0.61402138	     -0.40855637	      0.62105548	     -0.91813607	    103.83577618	    -28.95630979	      2.49501795	     97.73811663	      1.70585194	     31.68198550	      0.00000000	      0.00000000	    103.75461023	    -28.41069701	      2.69041780	     98.18136757	      1.71358813	     33.53957265	      0.00000000	      0.00000000	    -19.77887466	      3.88043024	      7.58821276	    -34.60510826	    -56.17255943	     35.43626835	    101.09965257	     87.87637436	      0.00000000	      0.00000000	     15.32127606	    -59.50598055	     82.31652485	     98.26647926	     87.89452831	      0.00000000	      0.00000000
      6.79000000	    -41.85382483	      1.65541700	     -1.15098032	     -0.41047277	      0.62119975	     -0.91741523	    104.99738654	    -27.86362380	      3.75445769	     97.34134739	      1.69892701	     31.38109052	      0.00000000	      0.00000000	    103.69623673	    -28.81654024	      1.86620169	     97.94064041	      1.70938665	     33.48835598	      0.00000000	      0.00000000	    -19.05434060	      2.62869939	      7.62041580	    -34.20809136	    -56.11934812	     35.75053258	    101.15387545	     87.87806161	      0.00000000	      0.00000000	     15.62541534	    -59.93182763	     82.58809558	     98.56264703	     87.89922181	      0.00000000	      0.00000000
      6.79500000	    -40.76529882	      1.08727674	     -0.58764855	     -0.40634313	      0.62387989	     -0.91906295	    103.17613213	    -28.81917850	      3.11079149	     97.48163399	      1.70137547	     31.78622626	      0.00000000	      0.00000000	    102.47438865	    -28.17243365	      2.20717095	     97.99634962	      1.71035896	     33.77963723	      0.00000000	      0.00000000	    -19.96759758	      3.48848511	      7.16584515	    -33.93327564	    -56.10970629	     35.82059399	    100.79867501	     87.88885351	      0.00000000	      0.00000000	     15.70496903	    -59.34192368	     82.72189084	     97.97771807	     87.90221425	      0.00000000	      0.00000000
      6.80000000	    -40.57259746	      1.21932072	      0.14023060	     -0.40536819	      0.62506599	     -0.92139284	    103.02280601	    -29.66099567	      3.49514104	     97.43096589	      1.70049115	     31.91898404	      0.00000000	      0.00000000	    101.87594458	    -27.07653404	      1.98854453	     97.82091258	      1.70729700	     33.86910011	      0.00000000	      0.00000000	    -19.89177295	      3.67383754	      6.08536870	    -33.34270658	    -56.37543032	     36.27160810	    100.69976267	     87.91889040	      0.00000000	      0.00000000	     14.92198213	    -59.23495704	     81.86374715	     97.78604193	     87.94557525	      0.00000000	      0.00000000
      6.80500000	    -40.74623546	      1.55180044	     -0.75099516	     -0.40575790	      0.62660955	     -0.91931684	    103.05675248	    -28.22498455	      3.82064201	     96.95808668	      1.69223785	     31.84845804	      0.00000000	      0.00000000	    101.73506639	    -27.95291323	      1.85450493	     97.55388100	      1.70263642	     33.95527720	      0.00000000	      0.00000000	    -19.49420816	      2.91662413	      6.50833484	    -31.96712373	    -56.50950016	     37.60649139	    100.53078128	     87.87787353	      0.00000000	      0.00000000	     15.31434865	    -59.52754863	     82.43197935	     97.92142905	     87.90218264	      0.00000000	      0.00000000
